<svg xmlns="http://www.w3.org/2000/svg" viewBox="0 0 128 128" width="128" height="128">
  <defs>
    <linearGradient id="bg" x1="0" y1="0" x2="1" y2="1">
      <stop offset="0" stop-color="#1c1512"/>
      <stop offset="1" stop-color="#120f0d"/>
    </linearGradient>
    <linearGradient id="flame" x1="0" y1="1" x2="0" y2="0">
      <stop offset="0" stop-color="#ff7a3d"/>
      <stop offset="0.7" stop-color="#ffc857"/>
      <stop offset="1" stop-color="#fff2c9"/>
    </linearGradient>
  </defs>
  <rect width="128" height="128" rx="28" fill="url(#bg)"/>
  <g transform="rotate(-12 64 70)">
    <rect x="38" y="30" width="52" height="74" rx="8" fill="#fbf6ee" stroke="#2a1b14" stroke-width="3"/>
    <text x="46" y="52" font-family="Georgia, serif" font-weight="700" font-size="18" fill="#c8283c">10</text>
  </g>
  <path d="M64 118c-16 0-27-11-27-25 0-12 8-19 12-27 2 8 6 11 9 12 0-10 2-22 14-30-1 12 6 17 11 24 5 7 8 13 8 21 0 14-11 25-27 25z" fill="url(#flame)"/>
  <path d="M64 112c-7 0-12-5-12-12 0-6 4-9 6-14 1 4 3 6 5 7 0-5 1-11 7-15 0 6 3 8 6 12 2 3 3 6 3 10 0 7-5 12-15 12z" fill="#fff2c9" opacity="0.85"/>
</svg>
